<svg width="31" height="16" viewBox="0 0 31 16" fill="none" xmlns="http://www.w3.org/2000/svg">
<path d="M30.8 15.4C30.8 11.3157 29.1775 7.39862 26.2894 4.51056C23.4014 1.6225 19.4843 3.08359e-07 15.4 0C11.3157 -3.08359e-07 7.39862 1.62249 4.51056 4.51055C1.6225 7.39861 6.16717e-07 11.3157 0 15.4L30.8 15.4Z" fill="#F7F7F7"/>
<path d="M19.8 15.4C19.8 14.233 19.3364 13.1139 18.5113 12.2887C17.6861 11.4636 16.567 11 15.4 11C14.233 11 13.1139 11.4636 12.2887 12.2887C11.4636 13.1139 11 14.233 11 15.4L19.8 15.4Z" fill="black" fill-opacity="0.3"/>
<path d="M15.4 11C16.567 11 17.6861 11.4636 18.5113 12.2887C19.3364 13.1139 19.8 14.233 19.8 15.4L11 15.4C11 14.3059 11.4078 13.2541 12.1387 12.447L12.2887 12.2887C13.1139 11.4636 14.233 11 15.4 11ZM15.4 12.1C14.5248 12.1 13.6857 12.4479 13.0668 13.0668C12.7158 13.4178 12.4559 13.8409 12.2934 14.3H18.5066C18.3441 13.8409 18.0842 13.4178 17.7332 13.0668C17.1143 12.4479 16.2752 12.1 15.4 12.1Z" fill="#5BAF57"/>
<path d="M3.3 15.0154V15.4L0 15.4V15.0154H3.3ZM30.8 15.0154V15.4H27.5V15.0154H30.8ZM7.1167 6.31318L6.98779 6.45605L6.85996 6.6L4.4 4.4L4.52783 4.25605L4.65674 4.11318L7.1167 6.31318ZM26.53 4.25605L26.6578 4.4L24.1979 6.6L24.07 6.45605L23.9411 6.31318L26.4011 4.11318L26.53 4.25605ZM15.7846 8.41574e-09V3.3H15.4L15.4 0L15.7846 8.41574e-09Z" fill="#5BAF57"/>
<path d="M27.6309 9.32566L19.0024 14.8098L17.9719 12.6769L27.6309 9.32566Z" fill="#5BAF57"/>
<path d="M30.8 15.2077V15.5923H0V15.2077H30.8Z" fill="#5BAF57"/>
</svg>
