<svg width="21" height="18" viewBox="0 0 21 18" fill="none" xmlns="http://www.w3.org/2000/svg">
<path d="M0 14.7256V0.5C0 0.223858 0.223858 0 0.5 0C0.776142 0 1 0.223858 1 0.5V14.7256C1.00021 15.5538 1.6717 16.2256 2.5 16.2256H19.75C20.0261 16.2256 20.25 16.4494 20.25 16.7256C20.2498 17.0015 20.026 17.2256 19.75 17.2256H2.5C1.11942 17.2256 0.000211855 16.1061 0 14.7256Z" fill="#5BAF57"/>
<path d="M3.9 8.57539H6.9V13.5754H3.9V8.57539Z" fill="#F7F7F7"/>
<path d="M6.9 8.57539V13.5754H3.9V8.57539H6.9ZM4.24961 13.2258H6.55039V8.925H4.24961V13.2258Z" fill="#5BAF57"/>
<path d="M9.4 0.575391H12.4V13.5754H9.4V0.575391Z" fill="black" fill-opacity="0.3"/>
<path d="M12.4 0.575391V13.5754H9.4V0.575391H12.4ZM9.74961 13.2258H12.0504V0.925H9.74961V13.2258Z" fill="#5BAF57"/>
<path d="M15.15 4.5002H18.15V13.5002H15.15V4.5002Z" fill="#F7F7F7"/>
<path d="M18.15 4.5002V13.5002H15.15V4.5002H18.15ZM15.4996 13.1506H17.8004V4.8498H15.4996V13.1506Z" fill="#5BAF57"/>
</svg>
