<svg width="22" height="22" viewBox="0 0 22 22" fill="none" xmlns="http://www.w3.org/2000/svg">
<path d="M21.6 10.8C21.6 16.7647 16.7647 21.6 10.8 21.6C4.83532 21.6 0 16.7647 0 10.8C0 4.83532 4.83532 0 10.8 0C16.7647 0 21.6 4.83532 21.6 10.8Z" fill="#F7F7F7"/>
<path d="M21.1559 10.8C21.1559 5.08093 16.5191 0.444141 10.8 0.444141C5.08093 0.444141 0.444141 5.08093 0.444141 10.8C0.444141 16.5191 5.08093 21.1559 10.8 21.1559V21.6C4.83532 21.6 0 16.7647 0 10.8C0 4.83532 4.83532 0 10.8 0C16.7647 0 21.6 4.83532 21.6 10.8C21.6 16.7647 16.7647 21.6 10.8 21.6V21.1559C16.5191 21.1559 21.1559 16.5191 21.1559 10.8Z" fill="#5BAF57"/>
<path d="M10.4246 16.8205L10.5274 15.3816C10.0221 15.3473 9.55101 15.2574 9.11421 15.1118C8.68598 14.9662 8.33054 14.7778 8.04791 14.5465L8.61318 13.5959C8.89581 13.8357 9.21271 14.0327 9.56386 14.1868C9.92358 14.3324 10.339 14.4052 10.81 14.4052C11.3753 14.4052 11.8207 14.2853 12.1461 14.0455C12.4801 13.8057 12.6472 13.4888 12.6472 13.0948C12.6472 12.8636 12.6 12.6623 12.5058 12.491C12.4116 12.3112 12.2275 12.1356 11.9534 11.9643C11.6879 11.793 11.2896 11.6088 10.7586 11.4119C10.1934 11.1892 9.73944 10.9665 9.39685 10.7438C9.06282 10.5211 8.82301 10.2685 8.67741 9.98584C8.53181 9.69464 8.45901 9.35205 8.45901 8.95807C8.45901 8.41849 8.66028 7.95172 9.06282 7.55774C9.47393 7.1552 10.0563 6.91967 10.81 6.85115L10.7072 5.38659H11.8378L11.7222 6.85115C12.099 6.87685 12.4502 6.9368 12.7756 7.03101C13.1011 7.12522 13.418 7.24513 13.7263 7.39073L13.3152 8.35426C13.0497 8.20009 12.7371 8.06734 12.3774 7.956C12.0176 7.84466 11.6408 7.78899 11.2468 7.78899C10.7244 7.78899 10.3133 7.89176 10.0135 8.09732C9.71374 8.30287 9.56386 8.56838 9.56386 8.89384C9.56386 9.09939 9.60668 9.28353 9.69233 9.44626C9.77798 9.60042 9.94927 9.75459 10.2062 9.90875C10.4632 10.0544 10.8486 10.2214 11.3624 10.4098C11.9791 10.6325 12.463 10.8723 12.8142 11.1292C13.1739 11.3776 13.4265 11.6517 13.5721 11.9514C13.7263 12.2426 13.8034 12.5767 13.8034 12.9535C13.8034 13.6387 13.5807 14.1868 13.1353 14.5979C12.69 15.0005 12.1247 15.2488 11.4395 15.3431L11.5552 16.8205H10.4246Z" fill="#5BAF57"/>
</svg>
