<svg width="20" height="15" viewBox="0 0 20 15" fill="none" xmlns="http://www.w3.org/2000/svg">
<path d="M11.5 6C12.0523 6 12.5 6.44772 12.5 7V8C12.5 8.55229 12.0523 9 11.5 9H1.5C0.947715 9 0.5 8.55229 0.5 8L0.5 7C0.5 6.44772 0.947715 6 1.5 6L11.5 6Z" fill="black" fill-opacity="0.3"/>
<path d="M11.5 8.5C11.7761 8.5 12 8.27614 12 8V7C12 6.72386 11.7761 6.5 11.5 6.5L1.5 6.5C1.22386 6.5 1 6.72386 1 7V8C1 8.27614 1.22386 8.5 1.5 8.5L11.5 8.5ZM1.5 9.5C0.671573 9.5 -2.65278e-08 8.82843 0 8L3.20142e-08 7C1.55181e-07 6.17157 0.671573 5.5 1.5 5.5L11.5 5.5C12.3284 5.5 13 6.17157 13 7V8C13 8.82843 12.3284 9.5 11.5 9.5L1.5 9.5Z" fill="#5BAF57"/>
<path d="M19.5 6V9H15.5V6H19.5Z" fill="#F7F7F7"/>
<path d="M19.5 9H15.5V6H19.5V9ZM15.8496 6.34961V8.65039H19.1504V6.34961H15.8496Z" fill="#5BAF57"/>
<path d="M8.5 3.86501e-07V3L0.5 3L0.5 0L8.5 3.86501e-07Z" fill="#F7F7F7"/>
<path d="M8.5 3L0.5 3L0.5 0L8.5 3.86501e-07V3ZM0.849609 0.349609L0.849609 2.65039L8.15039 2.65039V0.34961L0.849609 0.349609Z" fill="#5BAF57"/>
<path d="M8.5 12V15H0.5L0.5 12L8.5 12Z" fill="#F7F7F7"/>
<path d="M8.5 15H0.5L0.5 12L8.5 12V15ZM0.849609 12.3496L0.849609 14.6504L8.15039 14.6504V12.3496L0.849609 12.3496Z" fill="#5BAF57"/>
<path d="M19.5 3.86501e-07V3L11.5 3V0L19.5 3.86501e-07Z" fill="#F7F7F7"/>
<path d="M19.5 3L11.5 3V0L19.5 3.86501e-07V3ZM11.8496 0.349609V2.65039L19.1504 2.65039V0.34961L11.8496 0.349609Z" fill="#5BAF57"/>
<path d="M19.5 12V15H11.5V12L19.5 12Z" fill="#F7F7F7"/>
<path d="M19.5 15H11.5V12L19.5 12V15ZM11.8496 12.3496V14.6504L19.1504 14.6504V12.3496L11.8496 12.3496Z" fill="#5BAF57"/>
</svg>
